<?xml version="1.0" standalone="no"?>
<!DOCTYPE svg PUBLIC "-//W3C//DTD SVG 20010904//EN"
 "http://www.w3.org/TR/2001/REC-SVG-20010904/DTD/svg10.dtd">
<svg version="1.0" xmlns="http://www.w3.org/2000/svg"
 width="900.000000pt" height="640.000000pt" viewBox="0 0 900.000000 640.000000"
 preserveAspectRatio="xMidYMid meet">

<g transform="translate(0.000000,640.000000) scale(0.100000,-0.100000)"
fill="#000000" stroke="none">
<path d="M3060 6395 c0 -2 5 -15 11 -29 9 -19 9 -29 0 -40 -9 -11 -7 -21 9
-49 15 -26 20 -47 17 -79 -2 -24 0 -56 6 -71 8 -23 6 -34 -12 -57 -11 -16 -17
-31 -12 -34 19 -12 21 -69 4 -88 -13 -14 -14 -21 -5 -27 20 -12 26 -65 9 -80
-11 -8 -14 -23 -10 -46 4 -23 0 -43 -10 -59 -12 -18 -14 -32 -7 -55 7 -24 4
-35 -12 -56 -10 -14 -26 -25 -34 -25 -9 0 -14 -11 -14 -34 0 -34 -14 -56 -47
-74 -13 -8 -13 -13 -3 -32 11 -20 10 -29 -5 -56 -9 -17 -28 -37 -42 -43 -20
-9 -23 -15 -15 -23 21 -21 13 -55 -18 -85 -17 -15 -30 -38 -30 -51 0 -28 -18
-64 -36 -75 -8 -4 -14 -18 -14 -30 0 -26 -29 -72 -57 -92 -14 -10 -19 -22 -16
-39 4 -19 -3 -34 -27 -58 -22 -22 -34 -43 -35 -66 -2 -35 -47 -91 -74 -93 -11
0 -12 -2 -3 -6 23 -9 12 -31 -35 -73 -36 -32 -47 -48 -45 -66 2 -16 -6 -34
-27 -55 -17 -17 -31 -40 -31 -52 0 -22 -39 -87 -53 -87 -5 0 -6 -4 -2 -10 9
-14 -20 -76 -44 -92 -13 -9 -19 -21 -15 -31 7 -18 -42 -107 -59 -107 -8 0 -7
-4 2 -9 18 -11 7 -77 -15 -85 -11 -4 -12 -10 -5 -25 12 -22 -9 -93 -36 -123
-11 -12 15 -4 78 23 354 155 690 261 990 313 118 21 468 41 482 27 6 -6 -3
-12 -28 -17 -35 -6 -37 -8 -20 -20 10 -8 37 -14 59 -15 l41 -1 -48 -11 c-58
-14 -52 -27 12 -28 l46 -1 -45 -11 c-54 -14 -64 -36 -18 -38 22 -1 26 -3 13
-6 -45 -11 -37 -23 15 -24 l55 0 -47 -15 c-52 -16 -64 -34 -23 -34 14 0 25 -4
25 -10 0 -5 -11 -10 -24 -10 -14 0 -27 -4 -30 -9 -9 -13 4 -41 19 -41 13 0 85
74 148 152 27 32 53 52 85 64 26 10 58 28 73 41 31 28 39 29 39 4 0 -11 -13
-32 -29 -47 -16 -15 -32 -42 -35 -60 -4 -20 -21 -46 -45 -67 -39 -35 -71 -75
-39 -50 8 7 19 9 23 5 5 -4 5 -2 2 4 -4 7 6 14 26 19 17 4 39 9 47 11 8 2 45
5 82 7 61 2 67 4 63 22 -8 43 -25 181 -23 195 0 8 0 25 0 38 -2 22 -3 22 -164
22 -309 -1 -497 -15 -707 -55 -169 -31 -474 -112 -551 -146 -39 -17 -123 -28
-141 -18 -23 12 -49 87 -48 139 1 25 -2 59 -6 76 -5 25 -1 40 20 73 32 48 55
52 84 15 24 -31 26 -52 6 -77 -15 -21 -11 -42 15 -72 10 -11 23 -43 30 -72
l12 -51 59 20 c46 15 59 24 59 40 0 11 9 33 21 49 16 22 28 29 55 29 29 0 34
3 34 24 0 24 36 56 63 56 8 0 19 10 25 23 7 12 21 34 33 49 21 26 21 27 5 102
-10 42 -15 84 -11 95 3 11 0 21 -8 24 -8 3 -17 16 -20 29 -3 13 -15 49 -26 82
-14 38 -20 69 -16 87 8 35 51 89 71 89 21 0 46 -57 39 -91 -5 -22 1 -43 24
-86 17 -31 31 -71 31 -89 0 -18 5 -36 10 -39 6 -3 10 -37 10 -76 0 -65 9 -85
27 -56 4 7 20 20 35 30 15 9 30 28 34 42 7 29 19 31 40 10 23 -22 41 -18 48
11 16 61 55 91 83 63 23 -23 57 -1 82 51 21 45 23 57 16 118 -10 80 -10 107
-1 146 6 26 5 28 -9 16 -8 -7 -15 -9 -15 -5 0 4 -6 3 -13 -3 -7 -6 -36 -14
-65 -18 -46 -6 -52 -5 -52 12 0 10 9 28 21 40 16 17 19 28 13 46 -12 35 -6 50
42 93 27 25 44 50 44 63 0 13 6 38 14 57 11 26 23 36 53 44 52 15 53 15 98
-16 22 -15 34 -19 26 -10 -12 15 -12 17 3 11 9 -3 16 -1 16 5 0 6 4 11 10 11
5 0 38 13 73 29 90 41 330 131 351 131 10 0 14 5 10 11 -5 8 1 10 20 7 14 -3
26 -2 26 1 0 9 -108 31 -152 31 -27 0 -49 10 -86 39 -44 35 -240 251 -330 364
-62 78 -222 237 -237 237 -2 0 -18 13 -36 29 -51 47 -319 187 -319 166z m90
-260 c7 -8 18 -15 24 -15 21 0 119 -67 122 -83 1 -8 -4 -14 -12 -13 -17 3
-170 126 -156 126 5 0 15 -7 22 -15z m28 -159 c34 -21 62 -42 62 -47 0 -5 -31
12 -70 37 -38 26 -70 49 -70 51 0 5 1 5 78 -41z m474 -122 c53 -60 211 -279
176 -244 -49 50 -226 269 -221 274 10 9 12 8 45 -30z m-426 -25 c3 -6 -5 -3
-20 6 -14 10 -26 19 -26 22 0 7 39 -17 46 -28z m-86 -35 c0 -2 -13 2 -30 11
-16 9 -30 18 -30 21 0 2 14 -2 30 -11 17 -9 30 -18 30 -21z m473 16 c28 -24
229 -280 204 -259 -28 22 -217 247 -217 257 0 7 -4 11 -9 7 -5 -3 -12 -1 -15
4 -9 14 18 7 37 -9z m-438 -38 c-3 -3 -11 0 -18 7 -9 10 -8 11 6 5 10 -3 15
-9 12 -12z m447 -113 l93 -91 -91 78 c-81 70 -114 104 -99 104 3 0 46 -41 97
-91z m8 -104 c23 -25 2 -12 -61 40 -54 45 -91 83 -85 87 10 7 82 -55 146 -127z
m-85 -1 l70 -66 -82 63 c-46 34 -83 64 -83 66 0 16 37 -8 95 -63z m-40 -59
c68 -64 62 -63 -46 8 -70 45 -77 54 -70 85 2 6 57 -38 116 -93z m-30 -62 c29
-19 13 -16 -60 13 -63 25 -73 33 -58 47 6 6 66 -24 118 -60z m-72 -29 c29 -13
43 -22 32 -20 -144 31 -154 34 -134 47 16 10 32 6 102 -27z m-38 -49 l40 -13
-77 -1 c-72 -1 -76 0 -71 20 6 22 22 21 108 -6z m-117 -82 c-10 -2 -26 -2 -35
0 -10 3 -2 5 17 5 19 0 27 -2 18 -5z"/>
<path d="M7099 6372 c-13 -10 -53 -34 -89 -54 -36 -19 -103 -57 -150 -85 -333
-195 -639 -368 -775 -437 -175 -89 -344 -171 -354 -171 -3 -1 -28 -13 -56 -27
-359 -185 -708 -249 -998 -182 -62 14 -122 27 -134 30 -12 2 -34 9 -48 14 -14
5 -25 6 -25 2 0 -4 -4 -1 -9 7 -6 9 -11 10 -15 2 -4 -6 -2 -12 3 -12 6 -1 15
-2 20 -3 5 0 13 -5 18 -9 4 -5 3 -8 -2 -6 -6 1 -23 -1 -39 -6 -16 -4 -38 -9
-50 -10 -11 -1 -24 -3 -28 -4 -5 0 -8 -12 -8 -25 0 -17 -9 -28 -33 -39 -55
-26 -189 -73 -247 -87 -30 -7 -71 -23 -90 -35 -31 -19 -204 -109 -267 -138
-12 -5 -20 -13 -18 -18 3 -4 -4 -5 -15 -2 -18 5 -19 3 -10 -21 5 -15 10 -46
10 -69 0 -23 7 -73 17 -111 l16 -69 24 27 c13 15 23 36 23 46 0 13 5 17 15 14
10 -4 20 7 34 37 19 46 77 89 119 89 18 0 20 -5 18 -47 -2 -27 2 -58 7 -71
l10 -22 23 21 c14 13 31 20 43 16 13 -3 28 5 46 25 26 29 29 29 85 23 l59 -7
25 41 c29 45 30 46 75 30 29 -10 33 -9 52 15 21 26 53 34 64 16 14 -23 89 -10
148 26 31 19 87 44 124 55 36 10 76 28 89 40 14 13 31 20 42 17 11 -3 26 -1
35 3 12 7 15 3 14 -26 -2 -89 83 -141 163 -100 60 31 80 107 40 158 l-20 25
38 7 c58 10 112 39 169 87 28 25 80 57 115 71 34 14 97 40 138 58 203 85 331
136 324 129 -5 -5 -65 -43 -133 -85 -174 -106 -264 -180 -432 -352 -151 -155
-169 -184 -142 -223 14 -20 37 -23 39 -4 1 14 14 46 30 75 7 14 11 29 7 33 -3
3 -2 6 3 6 6 0 16 16 22 35 20 54 126 153 257 242 110 73 213 133 232 133 4 0
-9 -17 -29 -37 -97 -102 -265 -376 -281 -460 -6 -32 -5 -33 26 -32 23 1 26 3
10 6 -13 2 -23 11 -23 19 0 29 60 145 121 236 142 210 353 379 874 700 181
112 596 385 631 415 22 19 60 73 51 73 -2 0 -15 -8 -28 -18z m-2019 -1180 c8
-9 16 -28 17 -42 0 -14 -1 -19 -4 -12 -3 6 -18 12 -34 12 -24 0 -29 -4 -29
-25 0 -28 -15 -33 -28 -9 -12 22 -35 8 -29 -17 7 -26 -5 -24 -31 4 -19 20 -21
28 -11 54 20 58 109 79 149 35z"/>
<path d="M4238 5523 c7 -3 16 -2 19 1 4 3 -2 6 -13 5 -11 0 -14 -3 -6 -6z"/>
<path d="M4235 5373 c-27 -8 -61 -24 -75 -35 l-25 -21 45 7 c52 8 112 35 118
54 5 15 0 15 -63 -5z"/>
<path d="M6060 4900 c-52 -5 -53 -5 -20 -12 19 -4 64 -3 100 1 58 7 57 11 -5
15 -11 1 -45 -1 -75 -4z"/>
<path d="M5148 4893 c7 -3 16 -2 19 1 4 3 -2 6 -13 5 -11 0 -14 -3 -6 -6z"/>
<path d="M3951 4818 c-1 -32 3 -58 8 -58 5 0 6 21 4 48 -7 70 -11 74 -12 10z"/>
<path d="M4965 4738 c-33 -34 -49 -53 -35 -42 26 19 106 104 99 104 -3 0 -31
-28 -64 -62z"/>
<path d="M4460 4736 c0 -2 8 -10 18 -17 15 -13 16 -12 3 4 -13 16 -21 21 -21
13z"/>
<path d="M5320 4700 c-8 -5 -10 -10 -5 -10 6 0 17 5 25 10 8 5 11 10 5 10 -5
0 -17 -5 -25 -10z"/>
<path d="M4550 4645 c83 -85 130 -92 243 -35 88 45 93 55 11 20 -130 -54 -172
-50 -243 24 -19 20 -39 36 -45 36 -6 0 10 -20 34 -45z"/>
<path d="M5554 4638 l-19 -23 23 19 c12 11 22 21 22 23 0 8 -8 2 -26 -19z"/>
<path d="M5149 4613 l-24 -28 28 24 c15 14 27 26 27 28 0 8 -8 1 -31 -24z"/>
<path d="M5109 4563 c-13 -16 -12 -17 4 -4 9 7 17 15 17 17 0 8 -8 3 -21 -13z"/>
<path d="M5050 4530 c-9 -6 -10 -10 -3 -10 6 0 15 5 18 10 8 12 4 12 -15 0z"/>
<path d="M5004 4504 c-18 -14 -18 -15 4 -4 12 6 22 13 22 15 0 8 -5 6 -26 -11z"/>
<path d="M4927 4459 c-26 -17 -47 -35 -47 -41 0 -6 15 3 33 18 19 16 42 34 53
41 10 6 16 12 13 12 -3 1 -27 -13 -52 -30z"/>
<path d="M4831 4374 c-44 -47 -150 -96 -218 -102 -29 -2 -53 -6 -53 -8 0 -1
16 -20 35 -41 19 -21 35 -44 35 -50 0 -7 5 -13 11 -13 5 0 8 -4 4 -9 -3 -5 18
-18 46 -29 l51 -19 -43 -25 c-68 -39 -247 -128 -259 -128 -26 0 -110 -44 -110
-57 0 -27 -114 -225 -303 -528 -77 -122 -81 -131 -70 -120 5 6 54 75 108 155
82 120 300 434 312 449 12 15 10 -29 -7 -215 -11 -115 -20 -220 -20 -233 0
-62 11 3 39 229 17 135 33 260 36 278 l6 33 52 -6 c56 -7 155 -23 332 -55 63
-11 113 -16 118 -11 5 5 2 19 -8 34 -19 30 -6 44 25 27 19 -10 20 -9 14 15 -5
21 -3 24 11 19 16 -7 17 -6 1 19 -25 38 -5 42 56 11 101 -51 203 -128 317
-238 93 -90 108 -102 80 -62 -19 27 -81 97 -139 155 -105 107 -200 177 -355
261 -66 37 -91 59 -67 60 4 0 31 18 60 39 l53 38 -77 12 c-46 7 -88 19 -105
32 l-30 21 40 29 c22 15 45 38 51 49 15 28 10 25 -29 -16z"/>
<path d="M5254 4378 l-19 -23 23 19 c12 11 22 21 22 23 0 8 -8 2 -26 -19z"/>
<path d="M5199 4313 c-13 -16 -12 -17 4 -4 16 13 21 21 13 21 -2 0 -10 -8 -17
-17z"/>
<path d="M3919 4023 c-13 -16 -12 -17 4 -4 16 13 21 21 13 21 -2 0 -10 -8 -17
-17z"/>
<path d="M2464 3917 c-58 -19 -62 -22 -68 -56 -10 -63 -7 -87 17 -110 30 -27
40 -17 62 57 16 52 44 82 77 82 13 0 18 8 18 25 0 31 -20 32 -106 2z"/>
<path d="M2070 3839 c0 -5 -3 -8 -8 -5 -23 14 -202 -141 -202 -175 0 -8 54 24
161 93 44 29 58 44 61 68 3 16 1 30 -4 30 -4 0 -8 -5 -8 -11z"/>
<path d="M2238 3837 c-39 -9 -39 -9 -53 -104 -5 -30 -2 -52 10 -75 9 -19 25
-99 36 -183 10 -82 23 -170 29 -195 l9 -45 -3 40 c-3 40 23 117 43 129 6 4 11
15 11 25 0 9 10 37 22 62 31 64 25 171 -12 214 -27 30 -43 66 -49 105 -6 36
-6 36 -43 27z"/>
<path d="M5815 3721 c-92 -42 -269 -273 -423 -553 -105 -190 -384 -748 -375
-748 5 0 3 -4 -3 -8 -6 -4 -21 -25 -32 -47 -19 -39 -19 -41 -2 -41 10 0 17 3
15 6 -2 4 2 7 10 7 10 0 8 -13 -10 -53 -17 -39 -21 -55 -12 -60 7 -4 9 -4 6 0
-10 11 35 56 55 56 10 0 25 4 35 9 9 5 35 12 57 15 21 3 49 8 62 12 18 5 22 2
22 -17 l0 -22 23 21 c33 31 39 27 22 -15 -8 -20 -13 -38 -10 -41 2 -3 23 7 45
22 52 34 56 33 23 -9 -22 -28 -33 -35 -53 -31 -14 2 -44 0 -68 -6 l-42 -10 32
-17 c18 -9 34 -23 35 -31 9 -73 15 -88 35 -94 12 -3 19 -8 15 -12 -11 -11 -67
17 -67 33 0 11 -7 13 -24 9 -21 -5 -26 -1 -36 29 -6 19 -8 44 -5 56 6 18 4 21
-10 15 -39 -15 -153 -29 -171 -21 -10 4 -32 7 -49 6 -52 -3 -314 77 -382 117
-56 32 -63 40 -63 67 0 19 11 44 31 68 17 20 26 37 21 37 -5 0 -53 -18 -107
-40 -54 -22 -101 -40 -105 -40 -24 0 -284 191 -380 280 -30 28 -73 67 -95 88
-22 20 -52 53 -66 72 -15 19 -42 53 -62 75 -20 22 -42 51 -49 65 -6 14 -22 39
-34 55 -11 17 -29 45 -38 63 -16 32 -17 32 -47 17 -37 -20 -66 -65 -75 -119
-5 -30 -17 -50 -53 -82 -25 -23 -43 -46 -38 -50 4 -4 12 -3 18 3 12 12 52 5
44 -7 -6 -9 34 -92 48 -102 6 -3 15 -21 21 -40 10 -29 16 -33 49 -36 21 -2 37
-8 37 -16 0 -7 6 -20 13 -30 12 -17 15 -17 50 4 26 16 37 29 37 46 0 17 10 31
32 44 30 18 34 18 50 3 26 -24 23 -69 -7 -95 -14 -12 -25 -29 -25 -39 0 -10
-8 -25 -17 -35 -16 -16 -16 -16 4 -10 24 8 53 -2 53 -18 0 -6 14 -28 31 -49
26 -32 33 -36 46 -25 13 11 20 7 44 -21 26 -31 29 -32 44 -17 9 9 12 17 6 17
-6 1 -15 2 -20 3 -5 0 -13 5 -18 10 -4 5 -3 6 3 3 6 -4 19 2 29 13 18 20 41
28 31 11 -3 -5 15 -6 39 -3 35 4 50 0 67 -14 12 -11 18 -13 14 -6 -4 6 -2 12
4 12 6 0 8 4 5 10 -3 6 1 7 9 4 9 -3 16 -10 16 -16 0 -5 -6 -6 -12 -2 -8 4
-10 3 -5 -2 5 -5 13 -10 18 -10 5 -1 11 -3 14 -4 3 -1 8 -3 13 -4 4 -1 13 -5
20 -9 6 -5 17 -5 22 -2 6 3 10 -1 10 -10 0 -9 4 -14 9 -10 6 3 19 -5 31 -17
19 -21 21 -21 15 -3 -6 19 -6 19 8 3 8 -10 20 -18 26 -18 7 0 10 -4 7 -9 -3
-5 1 -12 10 -15 10 -4 13 -2 7 7 -4 6 8 0 26 -15 18 -16 39 -28 48 -28 10 0
13 -6 9 -16 -4 -9 -2 -13 5 -8 6 4 15 1 19 -5 4 -7 16 -13 28 -14 11 0 19 -4
16 -8 -8 -13 17 -22 29 -10 6 6 23 11 39 11 30 0 47 -22 53 -68 1 -15 3 -30 4
-34 0 -4 19 -5 41 -2 37 5 41 4 60 -30 21 -34 21 -35 41 -15 24 24 30 24 62
-1 l26 -20 3 31 c6 67 88 52 88 -16 0 -34 14 -54 25 -35 13 21 115 1 115 -22
0 -5 29 -8 65 -8 35 0 74 -5 87 -10 15 -7 47 -8 93 -2 57 8 62 10 27 11 -36 1
-43 4 -40 19 3 13 13 17 47 16 37 -1 42 2 38 18 -3 11 0 18 9 18 10 0 12 5 5
18 -5 9 -12 25 -15 36 -4 11 -12 16 -21 12 -8 -3 -17 -1 -20 3 -2 5 4 11 15
14 24 6 19 -11 70 247 76 393 186 798 276 1022 51 127 71 163 126 231 22 26
38 47 36 47 -2 0 -21 -9 -43 -19z"/>
<path d="M3480 3437 c-75 -59 -178 -173 -216 -238 -27 -47 -30 -61 -27 -110 4
-52 7 -56 38 -68 18 -6 36 -18 39 -27 5 -12 12 -10 46 11 75 47 80 55 80 112
0 58 23 93 60 93 24 0 24 3 6 43 -20 43 -46 124 -46 142 0 7 19 29 43 49 59
50 43 45 -23 -7z"/>
<path d="M4346 3355 c-3 -9 -5 -33 -5 -53 2 -33 2 -32 9 13 8 53 6 66 -4 40z"/>
<path d="M4332 3215 c0 -16 2 -22 5 -12 2 9 2 23 0 30 -3 6 -5 -1 -5 -18z"/>
<path d="M3948 2443 c7 -3 16 -2 19 1 4 3 -2 6 -13 5 -11 0 -14 -3 -6 -6z"/>
<path d="M4848 1821 l-28 -6 38 -40 c66 -71 157 -178 208 -245 264 -345 400
-528 627 -845 165 -230 184 -253 281 -350 58 -58 113 -102 152 -123 34 -18 64
-32 67 -32 3 0 -19 36 -49 81 -30 44 -54 83 -54 86 0 2 -17 35 -39 71 -56 96
-237 433 -284 527 -21 44 -44 83 -51 87 -6 4 -7 8 -2 8 5 0 2 8 -6 18 -8 9
-41 71 -73 137 -32 66 -62 122 -67 123 -4 2 -6 8 -2 13 3 5 0 9 -6 9 -6 0 -9
4 -5 9 3 5 -1 16 -9 24 -8 8 -13 16 -11 19 9 9 -42 82 -62 89 -20 7 -24 4 -31
-24 -5 -18 -18 -37 -31 -44 -13 -6 -27 -17 -32 -24 -6 -10 -11 -10 -24 1 -13
11 -18 11 -24 1 -6 -9 -15 -9 -34 -2 -30 12 -32 9 -16 -20 13 -26 21 -65 10
-53 -26 29 -355 451 -374 480 -23 35 -24 36 -69 25z"/>
<path d="M2841 1704 c0 -11 3 -14 6 -6 3 7 2 16 -1 19 -3 4 -6 -2 -5 -13z"/>
<path d="M2832 1630 c0 -14 2 -19 5 -12 2 6 2 18 0 25 -3 6 -5 1 -5 -13z"/>
<path d="M2816 1524 c-8 -65 -8 -232 2 -237 4 -3 7 60 8 139 0 79 0 144 -1
144 -1 0 -5 -21 -9 -46z"/>
<path d="M5470 1510 c6 -11 13 -20 16 -20 2 0 0 9 -6 20 -6 11 -13 20 -16 20
-2 0 0 -9 6 -20z"/>
</g>
</svg>
